# xmcd
#
# Track frame offsets:
#	150
#	12842
#	25655
#	38296
#	51569
#	65669
#	80306
#	94097
#	108803
#	121695
#	134908
#	147843
#	162522
#	176007
#	187751
#	200208
#	212711
#	224923
#	237749
#	250033
#	262611
#	272775
#	288880
#	302499
#
# Disc length: 4184 seconds
#
# Revision: 1
# Processed by: cddbd v1.5.2PL0 Copyright (c) Steve Scherf et al.
# Submitted via: audiograbber 1.83.01
#
DISCID=5c105618
DTITLE=Robert Nighthawk - Collection 1937-1952 CD2
DYEAR=2017
DGENRE=Blues
TTITLE0=Ann Sortier - Nerver Leave Me
TTITLE1=Robert Nighthawk - My Sweet Lovin' Woman
TTITLE2=Robert Nighthawk - Down The Line
TTITLE3=Robert Nighthawk - Handsome Lover
TTITLE4=Robert Nighthawk - She Knows How To Love A Man
TTITLE5=The Nighthawks - Annie Lee Blues
TTITLE6=The Nighthawks - Black Angel Blues
TTITLE7=Robert Nighthawk - Return Mail Blues
TTITLE8=Robert Nighthawk - Sugar Papa
TTITLE9=The Nighthawks - Six Three O
TTITLE10=The Nighthawks - Jackson Town Gal
TTITLE11=Robert Nighthawk - Good News
TTITLE12=Robert Nighthawk - Prison Bound
TTITLE13=Robert Nighthawk - Kansas City Blues
TTITLE14=Robert Nighthawk - Crying Won't Help You
TTITLE15=Robert Nighthawk - Feel So Bad
TTITLE16=Robert Nighthawk - Take It Easy Baby
TTITLE17=Robert Nighthawk - Nighthawk Boogie
TTITLE18=Robert Nighthawk - The Moon Is Rising
TTITLE19=Robert Nighthawk - Maggie Campbell
TTITLE20=Robert Nighthawk - Seventy Four
TTITLE21=Robert Nighthawk - Bricks In My Pillow
TTITLE22=Robert Nighthawk - US Boogie
TTITLE23=Robert Nighthawk - You Missed A Good Man
EXTD=
EXTT0=
EXTT1=
EXTT2=
EXTT3=
EXTT4=
EXTT5=
EXTT6=
EXTT7=
EXTT8=
EXTT9=
EXTT10=
EXTT11=
EXTT12=
EXTT13=
EXTT14=
EXTT15=
EXTT16=
EXTT17=
EXTT18=
EXTT19=
EXTT20=
EXTT21=
EXTT22=
EXTT23=
PLAYORDER=
